<?xml version="1.0" standalone="no"?>
<!DOCTYPE svg PUBLIC "-//W3C//DTD SVG 20010904//EN"
 "http://www.w3.org/TR/2001/REC-SVG-20010904/DTD/svg10.dtd">
<svg version="1.0" xmlns="http://www.w3.org/2000/svg"
 width="200.000000pt" height="200.000000pt" viewBox="0 0 200.000000 200.000000"
 preserveAspectRatio="xMidYMid meet">
<metadata>
Created by potrace 1.11, written by Peter Selinger 2001-2013
</metadata>
<g transform="translate(0.000000,200.000000) scale(0.100000,-0.100000)"
fill="#000000" stroke="none">
<path d="M869 1877 c-114 -39 -188 -103 -240 -205 -23 -46 -29 -53 -34 -37
-16 50 -25 59 -19 20 4 -22 8 -69 9 -105 3 -76 31 -228 45 -245 6 -7 11 -29
12 -49 1 -28 -4 -41 -21 -52 -50 -36 -45 -115 9 -148 17 -10 29 -23 27 -29 -2
-7 0 -20 4 -29 8 -15 14 -16 82 -9 5 1 5 10 2 21 -4 11 -2 20 4 20 6 0 11 -12
11 -27 1 -36 30 -99 66 -142 25 -30 29 -42 26 -90 -4 -113 -3 -111 -138 -147
-230 -61 -253 -83 -269 -259 -3 -38 -8 -88 -10 -110 -2 -22 -7 -66 -10 -97
l-6 -58 581 0 581 0 -6 68 c-4 37 -8 77 -10 90 -2 12 -7 62 -10 110 -8 102
-22 139 -65 181 -35 33 -45 37 -204 77 -59 15 -114 34 -122 42 -8 7 -15 30
-16 50 -4 95 -4 122 2 122 14 0 64 82 81 133 10 29 18 43 19 31 0 -17 6 -20
33 -18 58 3 59 3 52 23 -6 19 -2 24 43 59 13 10 25 32 29 54 5 32 1 41 -26 68
-37 38 -38 58 -10 160 36 130 38 143 43 243 3 59 1 95 -5 91 -5 -3 -7 -9 -4
-14 3 -4 1 -18 -3 -31 -8 -21 -12 -17 -42 39 -94 177 -308 264 -491 199z m274
-70 c107 -49 191 -164 203 -278 4 -30 13 -59 21 -66 17 -13 15 -24 -14 -125
-14 -49 -20 -58 -40 -58 -20 0 -23 5 -23 40 0 30 -6 45 -25 62 -14 12 -25 30
-25 40 0 11 -11 30 -25 43 l-24 25 -227 0 c-227 0 -227 0 -272 26 -39 23 -43
29 -38 54 21 110 126 220 241 256 66 20 181 12 248 -19z m43 -569 c6 -4 10
-52 9 -130 -3 -149 -16 -184 -101 -252 -76 -63 -111 -63 -187 -1 -82 67 -100
111 -102 254 -1 64 2 121 7 127 9 13 355 14 374 2z m-429 -170 c-3 -7 -5 -2
-5 12 0 14 2 19 5 13 2 -7 2 -19 0 -25z m243 -302 c30 0 64 1 74 4 16 4 20 -1
23 -30 2 -19 8 -48 13 -63 5 -15 7 -34 4 -42 -9 -21 -92 -74 -112 -70 -9 2
-24 4 -32 4 -9 1 -32 17 -53 36 -32 30 -35 38 -27 60 6 15 11 46 12 71 3 40 5
44 23 38 11 -4 45 -8 75 -8z m220 -300 c0 -18 -6 -25 -22 -28 -19 -2 -24 -10
-26 -48 -2 -24 -8 -50 -14 -57 -5 -7 -6 -18 -2 -25 5 -7 11 -33 14 -58 4 -37
9 -46 28 -48 16 -3 22 -10 22 -28 0 -20 -5 -24 -28 -24 -47 0 -70 34 -71 107
-1 26 -6 34 -27 39 -18 5 -24 12 -22 28 2 14 9 20 21 18 20 -3 24 6 30 68 5
49 33 80 73 80 19 0 24 -5 24 -24z m120 6 c15 -12 23 -31 25 -58 2 -21 4 -45
4 -51 1 -7 12 -15 25 -19 15 -4 23 -12 21 -22 -2 -9 -4 -21 -4 -25 -1 -5 -5
-6 -9 -3 -18 11 -33 -14 -37 -60 -4 -54 -29 -84 -71 -84 -33 0 -35 47 -2 52
19 2 23 11 26 48 2 25 9 51 14 58 8 9 8 16 0 24 -7 7 -12 26 -12 44 0 45 -9
64 -31 64 -14 0 -19 7 -19 25 0 20 5 25 24 25 13 0 34 -8 46 -18z"/>
</g>
</svg>
