<svg width="87" height="86" viewBox="0 0 87 86" fill="none" xmlns="http://www.w3.org/2000/svg">
<path d="M39.125 21.275H47.875V29.925H39.125V21.275ZM39.125 38.575H47.875V64.525H39.125V38.575ZM43.5 -0.349998C19.35 -0.349998 -0.25 19.026 -0.25 42.9C-0.25 66.774 19.35 86.15 43.5 86.15C67.65 86.15 87.25 66.774 87.25 42.9C87.25 19.026 67.65 -0.349998 43.5 -0.349998ZM43.5 77.5C24.2063 77.5 8.5 61.9732 8.5 42.9C8.5 23.8268 24.2063 8.3 43.5 8.3C62.7937 8.3 78.5 23.8268 78.5 42.9C78.5 61.9732 62.7937 77.5 43.5 77.5Z" fill="url(#paint0_linear)"/>
<defs>
<linearGradient id="paint0_linear" x1="-0.25" y1="-0.349998" x2="87.25" y2="-0.349998" gradientUnits="userSpaceOnUse">
<stop stop-color="#3E6EAD"/>
<stop offset="1" stop-color="#6AE4E6"/>
</linearGradient>
</defs>
</svg>
