<svg width="87" height="86" viewBox="0 0 87 86" fill="none" xmlns="http://www.w3.org/2000/svg">
<path d="M86.0511 35.2123C85.6792 34.658 85.2094 34.2114 84.6761 33.9055C84.1428 33.5996 83.5596 33.4421 82.9694 33.4445H75.0675V28.6667C75.0675 24.8653 73.8187 21.2196 71.5959 18.5316C69.3731 15.8435 66.3583 14.3334 63.2147 14.3334H38.403L37.1387 9.55565C36.319 6.7522 34.7987 4.32639 32.7883 2.61432C30.7779 0.902238 28.3769 -0.0113563 25.918 0.000106561H11.8528C8.70922 0.000106561 5.69442 1.51022 3.47159 4.19824C1.24877 6.88626 0 10.532 0 14.3334V71.6667C0 75.4681 1.24877 79.1138 3.47159 81.8019C5.69442 84.4899 8.70922 86 11.8528 86H68.746C71.4375 85.9905 74.0461 84.8736 76.1428 82.833C78.2396 80.7924 79.6996 77.9496 80.2827 74.7722L86.9203 39.2734C87.0404 38.5611 87.0246 37.8251 86.874 37.1213C86.7233 36.4175 86.4419 35.7646 86.0511 35.2123ZM17.2655 72.7178C17.0648 73.7956 16.5614 74.7559 15.8411 75.4354C15.1207 76.1149 14.2279 76.4714 13.3146 76.4445H11.8528C10.8049 76.4445 9.79998 75.9411 9.05904 75.0451C8.3181 74.1491 7.90184 72.9338 7.90184 71.6667V14.3334C7.90184 13.0663 8.3181 11.851 9.05904 10.955C9.79998 10.059 10.8049 9.55565 11.8528 9.55565H25.918C26.7796 9.50127 27.6322 9.78941 28.3456 10.3761C29.059 10.9627 29.5941 11.8156 29.869 12.8045L32.0025 20.6401C32.256 21.5514 32.731 22.349 33.3654 22.9287C33.9998 23.5083 34.7641 23.843 35.5583 23.889H63.2147C64.2626 23.889 65.2675 24.3923 66.0085 25.2883C66.7494 26.1843 67.1657 27.3996 67.1657 28.6667V33.4445H27.6565C26.7431 33.4175 25.8503 33.7741 25.13 34.4536C24.4096 35.133 23.9062 36.0934 23.7055 37.1712L17.2655 72.7178ZM72.5784 72.7178C72.3777 73.7956 71.8743 74.7559 71.154 75.4354C70.4336 76.1149 69.5408 76.4714 68.6275 76.4445H24.5352C24.7393 75.9121 24.8854 75.35 24.9698 74.7722L30.8172 43H78.2282L72.5784 72.7178Z" fill="url(#paint0_linear)"/>
<defs>
<linearGradient id="paint0_linear" x1="0" y1="0" x2="87" y2="0" gradientUnits="userSpaceOnUse">
<stop stop-color="#3E6EAD"/>
<stop offset="1" stop-color="#6AE4E6"/>
</linearGradient>
</defs>
</svg>
