<svg width="88" height="86" viewBox="0 0 88 86" fill="none" xmlns="http://www.w3.org/2000/svg">
<path d="M85.6703 11.626L65.9341 0.578175C65.2658 0.199406 64.5078 0 63.7363 0C62.9647 0 62.2067 0.199406 61.5385 0.578175L43.956 10.4176L26.3736 0.578175C25.7054 0.199406 24.9474 0 24.1758 0C23.4042 0 22.6462 0.199406 21.978 0.578175L2.24176 11.626C1.56279 12.0007 0.997416 12.5458 0.603519 13.2055C0.209621 13.8652 0.00134223 14.6158 0 15.3805V37.4761C0.00134223 38.2408 0.209621 38.9914 0.603519 39.6511C0.997416 40.3108 1.56279 40.8559 2.24176 41.2306L19.8242 51.0269V70.6195C19.8255 71.3842 20.0338 72.1348 20.4277 72.7945C20.8216 73.4542 21.387 73.9993 22.0659 74.374L41.8462 85.4218C42.5144 85.8006 43.2724 86 44.044 86C44.8155 86 45.5735 85.8006 46.2418 85.4218L65.9341 74.374C66.613 73.9993 67.1784 73.4542 67.5723 72.7945C67.9662 72.1348 68.1745 71.3842 68.1758 70.6195V51.0269L85.7582 41.2306C86.4372 40.8559 87.0026 40.3108 87.3965 39.6511C87.7904 38.9914 87.9987 38.2408 88 37.4761V15.3805C87.99 14.6071 87.7685 13.8507 87.3586 13.1901C86.9488 12.5296 86.3657 11.9894 85.6703 11.626ZM8.79121 34.9731V17.7109L24.1758 9.0798L39.5604 17.7109V34.9731L24.1758 43.6042L8.79121 34.9731ZM59.3407 68.1165L43.956 76.7476L28.5714 68.1165V50.8543L43.956 42.2232L59.3407 50.8543V68.1165ZM79.1209 34.9731L63.7363 43.6042L48.3516 34.9731V17.7109L63.7363 9.0798L79.1209 17.7109V34.9731Z" fill="url(#paint0_linear)"/>
<defs>
<linearGradient id="paint0_linear" x1="0" y1="0" x2="88" y2="0" gradientUnits="userSpaceOnUse">
<stop stop-color="#3E6EAD"/>
<stop offset="1" stop-color="#6AE4E6"/>
</linearGradient>
</defs>
</svg>
